<svg id="Layer_3" enable-background="new 0 0 64 64" height="512" viewBox="0 0 64 64" width="512" xmlns="http://www.w3.org/2000/svg"><path d="m62.089 41.667-1.886.666c.529 1.495.797 3.065.797 4.667 0 7.72-6.28 14-14 14s-14-6.28-14-14 6.28-14 14-14c1.947 0 3.831.392 5.6 1.164l.801-1.832c-2.023-.884-4.176-1.332-6.401-1.332-6.882 0-12.746 4.376-15 10.485-2.254-6.109-8.118-10.485-15-10.485-1.982 0-3.919.359-5.756 1.067l.72 1.865c1.606-.619 3.301-.932 5.036-.932 7.72 0 14 6.28 14 14s-6.28 14-14 14-14-6.28-14-14c0-1.947.392-3.832 1.165-5.6l-1.833-.8c-.884 2.022-1.332 4.175-1.332 6.4 0 8.822 7.178 16 16 16 6.882 0 12.746-4.376 15-10.485 2.254 6.109 8.118 10.485 15 10.485 8.822 0 16-7.178 16-16 0-1.83-.307-3.624-.911-5.333z"/><path d="m32 33c8.822 0 16-7.178 16-16 0-1.83-.307-3.624-.911-5.333l-1.886.666c.529 1.495.797 3.065.797 4.667 0 7.72-6.28 14-14 14s-14-6.28-14-14 6.28-14 14-14c1.947 0 3.831.392 5.6 1.164l.8-1.832c-2.022-.884-4.175-1.332-6.4-1.332-8.822 0-16 7.178-16 16s7.178 16 16 16z"/><path d="m21 42v-2c0-2.206-1.794-4-4-4s-4 1.794-4 4v2c0 2.206 1.794 4 4 4s4-1.794 4-4z"/><path d="m9 53v3h2v-4h2v4h8v-4h2v4h2v-3c0-2.418-1.726-4.439-4.01-4.9-.055 2.159-1.819 3.9-3.99 3.9s-3.935-1.741-3.99-3.9c-2.284.461-4.01 2.482-4.01 4.9z"/><path d="m17 50c1.103 0 2-.897 2-2h-4c0 1.103.897 2 2 2z"/><path d="m55 56v-3c0-2.418-1.726-4.439-4.01-4.9-.055 2.159-1.819 3.9-3.99 3.9s-3.935-1.741-3.99-3.9c-2.284.461-4.01 2.482-4.01 4.9v3h2v-4h2v4h8v-4h2v4z"/><path d="m47 50c1.103 0 2-.897 2-2h-4c0 1.103.897 2 2 2z"/><path d="m51 42v-2c0-2.206-1.794-4-4-4s-4 1.794-4 4v2c0 2.206 1.794 4 4 4s4-1.794 4-4z"/><path d="m40 26v-3c0-2.418-1.726-4.439-4.01-4.9-.055 2.159-1.819 3.9-3.99 3.9s-3.935-1.741-3.99-3.9c-2.284.461-4.01 2.482-4.01 4.9v3h2v-4h2v4h8v-4h2v4z"/><path d="m32 20c1.103 0 2-.897 2-2h-4c0 1.103.897 2 2 2z"/><path d="m36 12v-2c0-2.206-1.794-4-4-4s-4 1.794-4 4v2c0 2.206 1.794 4 4 4s4-1.794 4-4z"/><path d="m42 8h2v2h2v-7c0-.553-.448-1-1-1h-4c-.552 0-1 .447-1 1v7h2zm0-4h2v2h-2z"/><path d="m56 40h4v-2h-3v-4h3v-2h-4c-.552 0-1 .447-1 1v6c0 .553.448 1 1 1z"/><path d="m5 40h2.5c1.378 0 2.5-1.121 2.5-2.5 0-.565-.195-1.081-.513-1.5.318-.419.513-.935.513-1.5 0-1.379-1.122-2.5-2.5-2.5h-2.5c-.552 0-1 .447-1 1v3 3c0 .553.448 1 1 1zm1-6h1.5c.276 0 .5.225.5.5s-.224.5-.5.5h-1.5zm0 3h1.5c.276 0 .5.225.5.5s-.224.5-.5.5h-1.5z"/></svg>